<?xml version="1.0" encoding="utf-8"?>
<!-- Generator: Adobe Illustrator 27.5.0, SVG Export Plug-In . SVG Version: 6.00 Build 0)  -->
<svg version="1.1" xmlns="http://www.w3.org/2000/svg" xmlns:xlink="http://www.w3.org/1999/xlink" x="0px" y="0px"
	 viewBox="0 0 500 500" style="enable-background:new 0 0 500 500;" xml:space="preserve">
<g id="OBJECTS">
	<g>
		<g>
			<path style="fill:#F8E8E0;" d="M452.945,301.33c0-109.063-88.413-197.475-197.475-197.475
				c-109.063,0-197.475,88.413-197.475,197.475c0,45.786,15.587,87.928,41.738,121.422h311.474
				C437.358,389.258,452.945,347.116,452.945,301.33z"/>
		</g>
		<g>
			<g>
				<g>
					<g>
						
							<ellipse transform="matrix(0.9917 -0.1289 0.1289 0.9917 -6.2847 31.6119)" style="fill:#F2CF57;" cx="241.04" cy="64.351" rx="20.068" ry="20.068"/>
						<g>
							
								<path style="fill:none;stroke:#000000;stroke-width:2.0807;stroke-linecap:round;stroke-linejoin:round;stroke-miterlimit:10;" d="
								M234.876,60.008c0,0-0.929-1.802-3.321-1.261c-2.258,0.511-2.465,2.557-2.465,2.557"/>
							
								<path style="fill:none;stroke:#000000;stroke-width:2.0807;stroke-linecap:round;stroke-linejoin:round;stroke-miterlimit:10;" d="
								M249.305,56.775c0,0-0.929-1.802-3.321-1.261c-2.258,0.511-2.465,2.557-2.465,2.557"/>
						</g>
					</g>
					
						<path style="fill:none;stroke:#000000;stroke-width:2.0807;stroke-linecap:round;stroke-linejoin:round;stroke-miterlimit:10;" d="
						M236.076,69.182c0,0,5.964,2.059,10.702-2.398"/>
				</g>
				<g>
					<g>
						
							<ellipse transform="matrix(0.1618 -0.9868 0.9868 0.1618 219.5045 442.7439)" style="fill:#F2CF57;" cx="370.372" cy="92.161" rx="14.727" ry="14.727"/>
						<g>
							
								<path style="fill:none;stroke:#000000;stroke-width:1.5269;stroke-linecap:round;stroke-linejoin:round;stroke-miterlimit:10;" d="
								M368.201,87.071c0,0,0.116-1.483-1.586-2.069c-1.607-0.553-2.526,0.645-2.526,0.645"/>
							
								<path style="fill:none;stroke:#000000;stroke-width:1.5269;stroke-linecap:round;stroke-linejoin:round;stroke-miterlimit:10;" d="
								M378.455,90.623c0,0,0.116-1.483-1.586-2.069c-1.607-0.553-2.526,0.645-2.526,0.645"/>
						</g>
					</g>
					
						<path style="fill:none;stroke:#000000;stroke-width:1.5269;stroke-linecap:round;stroke-linejoin:round;stroke-miterlimit:10;" d="
						M365.41,93.26c0,0,2.927,3.587,7.605,2.634"/>
				</g>
				<g>
					<g>
						<circle style="fill:#7764FA;" cx="451.092" cy="286.982" r="11.899"/>
					</g>
					<path style="fill:#FFFFFF;" d="M455.137,283.921c-0.975-0.955-2.536-0.938-3.49,0.037l-0.629,0.642l-0.647-0.637
						c-0.971-0.957-2.533-0.944-3.49,0.027c-0.956,0.971-0.944,2.534,0.027,3.49l2.401,2.365c0.005,0.005,0.008,0.011,0.014,0.016
						c0.383,0.375,0.857,0.6,1.35,0.676c0.759,0.117,1.562-0.122,2.14-0.712l2.362-2.412
						C456.128,286.437,456.111,284.875,455.137,283.921z"/>
				</g>
				<g>
					<g>
						
							<ellipse transform="matrix(0.9739 -0.2272 0.2272 0.9739 -49.3756 16.1413)" style="fill:#7764FA;" cx="45.441" cy="222.593" rx="13.627" ry="13.627"/>
					</g>
					<path style="fill:#FFFFFF;" d="M50.074,219.087c-1.117-1.093-2.905-1.074-3.997,0.042l-0.72,0.735l-0.741-0.73
						c-1.112-1.096-2.902-1.082-3.997,0.03c-1.095,1.112-1.082,2.902,0.031,3.997l2.75,2.708c0.006,0.006,0.009,0.013,0.015,0.018
						c0.439,0.43,0.981,0.687,1.546,0.774c0.87,0.134,1.789-0.139,2.451-0.816l2.705-2.762
						C51.208,221.969,51.19,220.179,50.074,219.087z"/>
				</g>
				<g>
					<g>
						<path style="fill:#BA93FB;" d="M457.101,166.048h-25.359c-3.385,0-6.129-2.744-6.129-6.129l0,0
							c0-3.385,2.744-6.129,6.129-6.129h25.359c3.385,0,6.129,2.744,6.129,6.129l0,0
							C463.23,163.304,460.486,166.048,457.101,166.048z"/>
					</g>
					<g>
						<path style="fill:#FFFFFF;" d="M439.263,159.934c0.003,0.866-0.697,1.57-1.563,1.573c-0.866,0.003-1.57-0.697-1.573-1.563
							c-0.003-0.866,0.697-1.57,1.563-1.573S439.261,159.068,439.263,159.934z"/>
						<path style="fill:#FFFFFF;" d="M445.99,159.914c0.003,0.866-0.697,1.57-1.563,1.573c-0.866,0.003-1.57-0.697-1.573-1.563
							c-0.003-0.866,0.697-1.57,1.563-1.573C445.283,158.348,445.987,159.048,445.99,159.914z"/>
						<path style="fill:#FFFFFF;" d="M452.717,159.893c0.003,0.866-0.697,1.57-1.563,1.573c-0.866,0.003-1.57-0.697-1.573-1.563
							c-0.003-0.866,0.697-1.57,1.563-1.573S452.714,159.027,452.717,159.893z"/>
					</g>
				</g>
				<g>
					<g>
						<path style="fill:#BA93FB;" d="M111.449,125.649h-49.51c-1.11,0-2.01-0.9-2.01-2.01v-17.096c0-1.11,0.9-2.01,2.01-2.01h49.51
							c1.11,0,2.01,0.9,2.01,2.01v17.096C113.459,124.749,112.559,125.649,111.449,125.649z"/>
						<g>
							
								<line style="fill:none;stroke:#FBFAFF;stroke-width:1.5236;stroke-linecap:round;stroke-linejoin:round;stroke-miterlimit:10;" x1="69.574" y1="111.776" x2="99.792" y2="111.776"/>
							
								<line style="fill:none;stroke:#FBFAFF;stroke-width:1.5236;stroke-linecap:round;stroke-linejoin:round;stroke-miterlimit:10;" x1="69.574" y1="117.439" x2="81.17" y2="117.439"/>
						</g>
					</g>
					<path style="fill:#BA93FB;" d="M103.11,123.349v7.384c0,0.218-0.251,0.339-0.422,0.203l-9.542-7.587H103.11z"/>
				</g>
			</g>
			<g>
				
					<path style="fill:none;stroke:#FBFAFF;stroke-width:1.8936;stroke-linecap:round;stroke-linejoin:round;stroke-miterlimit:10;" d="
					M328.526,58.175c0,2.688-2.179,4.867-4.867,4.867s-4.867-2.179-4.867-4.867c0-2.688,2.179-4.867,4.867-4.867
					S328.526,55.487,328.526,58.175z"/>
				
					<path style="fill:none;stroke:#FBFAFF;stroke-width:1.8936;stroke-linecap:round;stroke-linejoin:round;stroke-miterlimit:10;" d="
					M41.474,345.137c0,2.688-2.179,4.867-4.867,4.867c-2.688,0-4.867-2.179-4.867-4.867s2.179-4.867,4.867-4.867
					C39.295,340.271,41.474,342.449,41.474,345.137z"/>
				
					<path style="fill:none;stroke:#FBFAFF;stroke-width:1.8936;stroke-linecap:round;stroke-linejoin:round;stroke-miterlimit:10;" d="
					M471.778,364.431c0,2.688-2.179,4.867-4.867,4.867c-2.688,0-4.867-2.179-4.867-4.867s2.179-4.867,4.867-4.867
					C469.6,359.565,471.778,361.743,471.778,364.431z"/>
				
					<line style="fill:none;stroke:#FBFAFF;stroke-width:1.8936;stroke-linecap:round;stroke-linejoin:round;stroke-miterlimit:10;" x1="113.609" y1="70.912" x2="179.476" y2="70.912"/>
				
					<line style="fill:none;stroke:#FBFAFF;stroke-width:1.8936;stroke-linecap:round;stroke-linejoin:round;stroke-miterlimit:10;" x1="403.405" y1="125.288" x2="436.084" y2="125.288"/>
				
					<line style="fill:none;stroke:#FBFAFF;stroke-width:1.8936;stroke-linecap:round;stroke-linejoin:round;stroke-miterlimit:10;" x1="45.335" y1="166.502" x2="67.933" y2="166.502"/>
			</g>
		</g>
	</g>
	<g>
		<g>
			<g>
				<g>
					<polygon style="fill:#E6B99A;" points="154.766,414.467 154.875,393.741 143.574,393.165 143.448,415.466 154.348,415.536 
											"/>
					<g>
						<path style="fill:#17203D;" d="M142.783,410.973c0,0,8.926,3.671,13.119-2.116l21.686,11.165l-37.573-0.221L142.783,410.973z"
							/>
						<polygon style="fill:#FFFFFF;" points="177.566,423.177 139.994,422.956 140.016,419.801 177.589,420.022 						"/>
					</g>
				</g>
				<g>
					<polygon style="fill:#E6B99A;" points="91.741,414.467 95.729,393.741 107.029,393.165 103.058,415.466 92.159,415.536 					
						"/>
					<g>
						<path style="fill:#17203D;" d="M105.089,410.973c0,0-8.926,3.671-13.119-2.116l-21.686,11.165l37.573-0.221L105.089,410.973z"
							/>
						<polygon style="fill:#FFFFFF;" points="70.306,423.177 107.878,422.956 107.856,419.801 70.283,420.022 						"/>
					</g>
				</g>
				<g>
					<path style="fill:#7A67FA;" d="M159.204,259.603L159.204,259.603l-1.399,138.944l-20.229,0.858l-1.769-109.781l-2.972-0.054
						L111.04,399.404l-19.256-1.512c0,0,14.486-102.128,16.525-110.115l4.823-28.175H159.204z"/>
					
						<line style="fill:none;stroke:#323166;stroke-width:0.9546;stroke-miterlimit:10;" x1="158.014" y1="389.045" x2="137.469" y2="389.445"/>
					
						<line style="fill:none;stroke:#323166;stroke-width:0.9546;stroke-miterlimit:10;" x1="113.36" y1="389.445" x2="93.247" y2="387.632"/>
					
						<line style="fill:none;stroke:#323166;stroke-width:0.9546;stroke-miterlimit:10;" x1="123.932" y1="289.587" x2="138.672" y2="289.587"/>
				</g>
			</g>
			<g>
				<g>
					<g>
						<path style="fill:#E6B99A;" d="M101.954,228.879l-4.942,29.207c-0.612,4.326,2.467,8.303,6.808,8.794l0,0
							c3.933,0.444,7.57-2.144,8.438-6.006l6.178-27.959L101.954,228.879z"/>
						<g>
							<path style="fill:#FFFFFF;" d="M95.932,234.551l4.152-17.62c0.821-5.898,7.019-10.156,12.96-9.748l0,0
								c6.356,0.437,10.608,5.827,10.013,12.17l-2.379,17.293L95.932,234.551z"/>
						</g>
					</g>
					<g>
						<g>
							<path style="fill:#E6B99A;" d="M110.775,254.357L110.775,254.357c3.223,3.325,2.578,8.944-1.398,11.316l-27.496,21.028
								l-8.802-4.739l27.62-29.541C103.59,250.177,108.228,251.729,110.775,254.357z"/>
							<g>
								<path style="fill:#E6B99A;" d="M85.691,289.4c1.71-4.743-0.748-9.974-5.491-11.685c-4.743-1.711-9.974,0.748-11.685,5.491
									c-1.711,4.743,0.748,9.974,5.491,11.685C78.749,296.601,83.981,294.143,85.691,289.4z"/>
								<path style="fill:#E6B99A;" d="M68.751,289.973c0,0-4.158-0.196-2.883-4.813c1.275-4.618,5.474-9.877,14.333-7.445
									L68.751,289.973z"/>
							</g>
						</g>
					</g>
				</g>
				<g>
					<polygon style="fill:#FFFFFF;" points="120.028,203.544 108.636,207.702 109.186,274.967 160.099,275.083 164.914,219.605 
						159.053,206.878 144.27,201.732 					"/>
				</g>
				<g>
					<g>
						<path style="fill:#E6B99A;" d="M138.822,256.709L138.822,256.709c-3.085,3.454-8.584,3.126-11.236-0.67l-28.147-27.518
							l5.955-7.146l33.356,21.659C141.195,245.757,141.259,253.98,138.822,256.709z"/>
						<path style="fill:#E6B99A;" d="M95.668,214.934c0,0,1.465-4.908,6.162-3.969c4.697,0.939,8.676,5.496,6.889,14.507
							L95.668,214.934z"/>
						<g>
							<path style="fill:#332C30;" d="M82.427,200.265c1.326,4.867,5.133,19.09,6.248,23.259c0.18,0.674,0.818,1.115,1.512,1.051
								l12.16-1.116c0.897-0.082,1.496-0.963,1.243-1.827l-6.79-23.205c-0.192-0.657-0.823-1.086-1.505-1.023l-11.616,1.067
								C82.792,198.551,82.193,199.407,82.427,200.265z"/>
						</g>
						<path style="fill:#E6B99A;" d="M96.99,230.71c4.854,1.365,10.364-0.385,11.728-5.239c1.364-4.854-1.464-9.895-6.318-11.259
							c-4.854-1.365-10.891-0.146-12.256,4.707C88.781,223.773,92.136,229.345,96.99,230.71z"/>
					</g>
					<g>
						<path style="fill:#E6B99A;" d="M140.731,222.737l-12.879,24.61c-2.542,3.553-1.648,8.504,1.975,10.944l0,0
							c3.283,2.211,7.704,1.596,10.258-1.428l15.532-22.897L140.731,222.737z"/>
						<g>
							<g>
								<g>
									<path style="fill:#FFFFFF;" d="M135.155,226.415l11.265-15.248c3.453-4.852,10.071-6.206,15.151-3.099l0,0
										c5.436,3.324,5.805,13.306,1.32,19.517l-6.042,12.772L135.155,226.415z"/>
								</g>
							</g>
							
								<line style="fill:none;stroke:#323166;stroke-width:0.9546;stroke-miterlimit:10;" x1="137.753" y1="228.085" x2="144.921" y2="214.094"/>
							<polyline style="fill:none;stroke:#323166;stroke-width:0.9546;stroke-miterlimit:10;" points="152.973,237.867 
								156.849,240.357 162.262,230.588 							"/>
						</g>
					</g>
				</g>
			</g>
			<g>
				<path style="fill:#E6B99A;" d="M126.252,189.229l-0.474,12.032c-0.175,4.225,2.254,6.578,6.284,6.695l0,0
					c3.44,0.1,7.282-1.419,7.278-5.149l-0.137-18.965L126.252,189.229z"/>
				<polygon style="fill:#D1987B;" points="125.891,199.625 137.753,191.784 126.189,190.877 				"/>
				<path style="fill:#D1987B;" d="M123.433,177.911c0.075,2.782-2.048,5.107-4.743,5.192c-2.695,0.085-4.941-2.101-5.016-4.884
					c-0.076-2.782,2.048-5.107,4.743-5.192C121.112,172.942,123.358,175.129,123.433,177.911z"/>
				<path style="fill:#E6B99A;" d="M129.724,192.876L129.724,192.876c-6.871-0.255-12.32-6.07-12.293-11.872l0.123-12.136
					c0.035-7.271,5.649-13.218,12.689-13.44l0,0c7.207-0.227,14.475,5.58,14.677,13.02l-0.211,9.456
					C144.53,186.418,137.968,192.616,129.724,192.876z"/>
				<g>
					<path style="fill:#E6B99A;" d="M150.593,177.912c0.075,2.755-2.028,5.057-4.697,5.141c-2.669,0.084-4.893-2.081-4.967-4.836
						c-0.074-2.755,2.028-5.057,4.697-5.141C148.295,172.992,150.518,175.157,150.593,177.912z"/>
					
						<path style="fill:none;stroke:#332C30;stroke-width:0.7089;stroke-linecap:round;stroke-linejoin:round;stroke-miterlimit:10;" d="
						M143.728,179.314c0,0,1.515-4.033,4.788-3.206"/>
				</g>
				<path style="fill:#332C30;" d="M117.455,178.502c0,0,0.11,4.329,2.474,4.986c2.365,0.657,3.279-0.484,6.497-0.708
					c3.614-0.251,5.449,0.339,9.259,2.179c3.186,1.539,7.019-8.395,8.321-11.029c0.255-0.515,0.792-0.138,0.792-0.138l-0.838,8.45
					c0,0-1.454,12.034-15.115,11.64C115.182,193.488,117.455,178.502,117.455,178.502z"/>
				<g>
					<path style="fill:#BA93FB;" d="M117.432,166.525h27.812v-1.107c0-7.297-6.226-13.213-13.906-13.213l0,0
						c-7.68,0-13.906,5.916-13.906,13.213V166.525z"/>
					<path style="fill:#976EE5;" d="M145.243,165.688c0,0-15.186-8.316-29.748-6.443c-14.562,1.872,2.08,7.281,2.08,7.281h27.667
						V165.688z"/>
				</g>
				<polygon style="fill:#332C30;" points="145.243,166.525 144.797,173.792 144.246,176.346 142.213,166.525 				"/>
				<polygon style="fill:#332C30;" points="117.513,173.025 117.431,166.477 118.674,166.525 				"/>
				<g>
					
						<polyline style="fill:none;stroke:#332C30;stroke-width:0.7089;stroke-linecap:round;stroke-linejoin:round;stroke-miterlimit:10;" points="
						126.398,178.642 126.22,181.281 128.563,181.276 					"/>
					<path style="fill:#332C30;" d="M123.405,176.641c-0.006,0.674-0.54,1.217-1.193,1.213c-0.653-0.004-1.178-0.554-1.172-1.228
						c0.006-0.674,0.54-1.217,1.193-1.213C122.886,175.417,123.411,175.967,123.405,176.641z"/>
					<path style="fill:#332C30;" d="M134.703,176.703c-0.006,0.674-0.54,1.217-1.193,1.213c-0.653-0.004-1.178-0.554-1.172-1.228
						c0.006-0.674,0.54-1.217,1.193-1.213C134.184,175.478,134.709,176.028,134.703,176.703z"/>
					<path style="fill:#332C30;" d="M124.753,171.4c0,0,0.212,1.189-1.378,1.157c-1.208-0.024-1.972-0.056-2.676,0.09
						c-0.4,0.083-0.815-0.109-0.982-0.452l0,0c-0.136-0.277-0.084-0.597,0.14-0.813c0.454-0.439,1.373-1.085,2.843-1.074
						C124.587,170.322,124.753,171.4,124.753,171.4z"/>
					<path style="fill:#332C30;" d="M131.365,171.399c0,0-0.241,1.192,1.48,1.145c1.307-0.036,2.133-0.075,2.894,0.064
						c0.432,0.079,0.882-0.117,1.067-0.462l0,0c0.149-0.279,0.097-0.598-0.143-0.813c-0.487-0.435-1.475-1.072-3.065-1.047
						C131.555,170.319,131.365,171.399,131.365,171.399z"/>
					
						<path style="fill:none;stroke:#FFFFFF;stroke-width:0.7089;stroke-linecap:round;stroke-linejoin:round;stroke-miterlimit:10;" d="
						M125.212,185.248c0,0,2.526,1.564,5.697-0.377"/>
				</g>
				<path style="fill:#E6B99A;" d="M128.646,200.41l-8.618,3.133c0,0-2.93,6.482,10.408,6.529c13.839,0.048,13.835-8.34,13.835-8.34
					l-8.402-3.021L128.646,200.41z"/>
			</g>
		</g>
		<g>
			<g>
				<path style="fill:#7764FA;" d="M201.149,423.177h111.108c14.182,0,25.679-11.497,25.679-25.679V164.5
					c0-14.182-11.497-25.679-25.679-25.679H201.149c-14.182,0-25.679,11.497-25.679,25.679v232.999
					C175.471,411.68,186.967,423.177,201.149,423.177z"/>
				<path style="fill:#FDFCFF;" d="M200.997,415.398H312.41c9.764,0,17.678-7.915,17.678-17.678V165.905
					c0-9.764-7.915-17.678-17.678-17.678H200.997c-9.763,0-17.678,7.915-17.678,17.678v231.814
					C183.318,407.483,191.233,415.398,200.997,415.398z"/>
				<path style="fill:#7764FA;" d="M229.467,156.909h53.267c2.637,0,4.775-2.138,4.775-4.775v-7.788h-62.817v7.788
					C224.692,154.771,226.83,156.909,229.467,156.909z"/>
			</g>
			<g>
				<g>
					<g>
						<path style="fill:#BA93FB;" d="M303.394,230.588H203.209c-3.358,0-6.08-2.722-6.08-6.08v-30.093c0-3.358,2.722-6.08,6.08-6.08
							h100.185c3.358,0,6.08,2.722,6.08,6.08v30.093C309.474,227.866,306.752,230.588,303.394,230.588z"/>
						<polygon style="fill:#BA93FB;" points="287.211,221.932 287.211,237.511 303.655,221.71 						"/>
					</g>
					<g>
						
							<line style="fill:none;stroke:#271545;stroke-width:0.9319;stroke-miterlimit:10;" x1="211.723" y1="202.144" x2="291.404" y2="202.144"/>
						
							<line style="fill:none;stroke:#271545;stroke-width:0.9319;stroke-miterlimit:10;" x1="211.723" y1="210.072" x2="291.404" y2="210.072"/>
						
							<line style="fill:none;stroke:#271545;stroke-width:0.9319;stroke-miterlimit:10;" x1="211.723" y1="218.001" x2="237.992" y2="218.001"/>
					</g>
				</g>
				<g>
					<g>
						<path style="fill:#BA93FB;" d="M303.394,361.397H203.209c-3.358,0-6.08-2.722-6.08-6.08v-30.093c0-3.358,2.722-6.08,6.08-6.08
							h100.185c3.358,0,6.08,2.722,6.08,6.08v30.093C309.474,358.675,306.752,361.397,303.394,361.397z"/>
						<polygon style="fill:#BA93FB;" points="287.211,352.742 287.211,368.32 303.655,352.52 						"/>
					</g>
					<g>
						
							<line style="fill:none;stroke:#271545;stroke-width:0.9319;stroke-miterlimit:10;" x1="211.723" y1="332.953" x2="291.404" y2="332.953"/>
						
							<line style="fill:none;stroke:#271545;stroke-width:0.9319;stroke-miterlimit:10;" x1="211.723" y1="340.882" x2="291.404" y2="340.882"/>
						
							<line style="fill:none;stroke:#271545;stroke-width:0.9319;stroke-miterlimit:10;" x1="211.723" y1="348.81" x2="237.992" y2="348.81"/>
					</g>
				</g>
				<g>
					<g>
						<path style="fill:#F2CF57;" d="M203.209,297.111h100.185c3.358,0,6.08-2.722,6.08-6.08v-30.093c0-3.358-2.722-6.08-6.08-6.08
							H203.209c-3.358,0-6.08,2.722-6.08,6.08v30.093C197.129,294.389,199.851,297.111,203.209,297.111z"/>
						<polygon style="fill:#F2CF57;" points="218.393,288.455 218.393,304.034 201.95,288.233 						"/>
					</g>
					<g>
						
							<line style="fill:none;stroke:#271545;stroke-width:0.9319;stroke-miterlimit:10;" x1="211.723" y1="267.292" x2="259.065" y2="267.292"/>
						
							<line style="fill:none;stroke:#271545;stroke-width:0.9319;stroke-miterlimit:10;" x1="211.723" y1="275.22" x2="291.404" y2="275.22"/>
						
							<line style="fill:none;stroke:#271545;stroke-width:0.9319;stroke-miterlimit:10;" x1="211.723" y1="283.148" x2="227.736" y2="283.148"/>
					</g>
				</g>
			</g>
		</g>
		<g>
			<g>
				<g>
					<g>
						<path style="fill:#332C30;" d="M402.364,416.89l6.16,3.04c0.653,0.322,1.048,1.06,0.846,1.759
							c-0.16,0.552-0.683,1.061-2.053,1.086c-3.045,0.054-16.523-2.046-16.523-2.046v1.414l-6.254-0.707
							c0,0-0.437-7.151,1.467-8.198L402.364,416.89z"/>
						<path style="fill:#E6B99A;" d="M392.435,409.733l9.929,7.157c0,0-1.062,2.73-5.764,0.91
							c-4.702-1.82-10.593-4.562-10.593-4.562l0.859-4.278L392.435,409.733z"/>
					</g>
					<polygon style="fill:#E6B99A;" points="386.007,413.238 385.026,386.72 394.943,387.662 393.531,412.294 					"/>
				</g>
				<g>
					<g>
						<path style="fill:#332C30;" d="M357.805,416.89l-6.159,3.04c-0.653,0.322-1.048,1.06-0.846,1.759
							c0.16,0.552,0.682,1.061,2.053,1.086c3.045,0.054,16.523-2.046,16.523-2.046v1.414l6.253-0.707c0,0,0.437-7.151-1.467-8.198
							L357.805,416.89z"/>
						<path style="fill:#E6B99A;" d="M367.733,409.733l-9.929,7.157c0,0,1.062,2.73,5.764,0.91
							c4.702-1.82,10.593-4.562,10.593-4.562l-0.859-4.278L367.733,409.733z"/>
					</g>
					<polygon style="fill:#E6B99A;" points="374.162,413.238 375.143,386.72 365.226,387.662 366.638,412.294 					"/>
				</g>
				<g>
					<path style="fill:#E79CFB;" d="M392.519,251.985c0,0,7.637,4.008,9.724,22.603c2.087,18.594-3.884,125.397-3.884,125.397
						h-14.688l-2.087-117.415L377.6,399.985h-15.215l-4.971-109.921c0,0-1.955-26.415,8.415-37.458L392.519,251.985z"/>
					
						<line style="fill:none;stroke:#323166;stroke-width:0.9546;stroke-miterlimit:10;" x1="381.405" y1="283.104" x2="388.631" y2="279.835"/>
					
						<line style="fill:none;stroke:#323166;stroke-width:0.9546;stroke-miterlimit:10;" x1="398.72" y1="393.728" x2="383.554" y2="393.728"/>
					
						<line style="fill:none;stroke:#323166;stroke-width:0.9546;stroke-miterlimit:10;" x1="377.824" y1="393.728" x2="362.085" y2="393.728"/>
				</g>
			</g>
			<g>
				<g>
					<g>
						<path style="fill:#C88D6D;" d="M404.409,223.694l7.341,26.982c0.8,3.057-1.177,6.146-4.287,6.701l0,0
							c-2.715,0.485-6.409-2.125-7.192-4.77l-6.8-21.548L404.409,223.694z"/>
						<path style="fill:#7A67FA;" d="M396.061,209.159c0,0,7.412,0.249,11.348,12.798l2.886,13.507l-21.307,3.601L396.061,209.159z"
							/>
					</g>
					<g>
						<g>
							<path style="fill:#C88D6D;" d="M425.347,221.528l-24.821,27.104c-1.899,2.372,0.367,5.839,2.772,7.696l0,0
								c2.53,1.954,6.191,1.312,7.906-1.385l18.555-27.322L425.347,221.528z"/>
						</g>
						<g>
							<path style="fill:#332C30;" d="M429.442,197.794c-0.876,4.968-3.366,19.48-4.095,23.733c-0.118,0.687-0.713,1.185-1.41,1.185
								h-12.211c-0.901,0-1.578-0.822-1.405-1.706l4.64-23.729c0.131-0.672,0.72-1.157,1.405-1.157h11.665
								C428.921,196.121,429.597,196.918,429.442,197.794z"/>
							<path style="fill:#C88D6D;" d="M423.903,235.697l7.161-9.878c0.625-0.862,0.96-1.902,0.937-2.966
								c-0.081-3.841-0.809-13.092-5.865-15.07c-6.42-2.512-9.77,3.071-6.699,8.374c3.071,5.304,3.071,7.537,3.071,7.537
								l-4.223,5.583L423.903,235.697z"/>
						</g>
					</g>
				</g>
				<g>
					<path style="fill:#7A67FA;" d="M384.513,206.836l11.548,2.323c0,0,4.6,11.873,1.989,23.465l-5.532,19.361l-26.69,0.622
						l-8.678-31.638l-0.843-10.004l16.715-4.936L384.513,206.836z"/>
					<path style="fill:none;stroke:#323166;stroke-width:0.9546;stroke-miterlimit:10;" d="M396.577,237.782
						c0,0,3.203-8.61,0.51-17.478"/>
				</g>
				<g>
					<g>
						<path style="fill:#C88D6D;" d="M365.303,225.739l-0.471,25.251c-0.232,3.151-4.326,7.792-7.448,7.311l0,0
							c-2.726-0.419-4.702-2.821-4.587-5.576l-0.225-23.552L365.303,225.739z"/>
						<g>
							<path style="fill:#7A67FA;" d="M356.308,210.965c0,0-6.305,1.699-6.227,11.636l-1.559,17.476l17.365-1.791l2.903-18.458
								L356.308,210.965z"/>
							
								<line style="fill:none;stroke:#323166;stroke-width:0.9546;stroke-miterlimit:10;" x1="365.887" y1="238.286" x2="366.785" y2="225.652"/>
						</g>
					</g>
					<g>
						<g>
							<path style="fill:#C88D6D;" d="M388.939,225.759l-32.277,18.601l4.389,12.67c0,0,17.089-13.521,31.86-26.437L388.939,225.759
								z"/>
						</g>
						<g>
							
								<ellipse transform="matrix(0.229 -0.9734 0.9734 0.229 84.1443 557.7561)" style="fill:#C88D6D;" cx="394.178" cy="225.759" rx="7.45" ry="7.45"/>
							<path style="fill:#C88D6D;" d="M391.851,218.566l11.023-4.004c0.495-0.18,1.049,0.01,1.328,0.457l0,0
								c0.32,0.511,0.177,1.184-0.323,1.521l-8.21,5.519L391.851,218.566z"/>
						</g>
					</g>
				</g>
			</g>
			<g>
				<path style="fill:#332C30;" d="M392.752,175.566c0,9.293-7.855,18.827-17.545,18.827c-9.69,0-16.59-9.533-16.59-18.827
					c0-9.293,6.9-15.872,16.59-15.872C384.897,159.693,392.752,166.273,392.752,175.566z"/>
				<g>
					<g>
						<path style="fill:#A96448;" d="M385.454,184.229c-0.084,2.479,1.857,4.556,4.336,4.64c2.479,0.084,4.556-1.857,4.64-4.336
							c0.084-2.479-1.857-4.556-4.336-4.64C387.615,179.809,385.538,181.75,385.454,184.229z"/>
					</g>
				</g>
				<polygon style="fill:#C88D6D;" points="383.127,194.393 384.513,208.39 371.765,207.813 372.74,194.393 				"/>
				<path style="fill:#A96448;" d="M383.999,203.247l-10.295-6.601c-0.488-0.328,2.131-2.684,2.717-2.735l6.918,2.411
					L383.999,203.247z"/>
				<path style="fill:#C88D6D;" d="M379.886,198.499L379.886,198.499c6.354-0.207,11.423-5.397,11.428-10.592l-0.062-12.257
					c0.007-6.511-5.153-11.854-11.66-12.074l0,0c-6.662-0.226-13.413,4.952-13.639,11.614l0.157,9.857
					C366.231,192.671,372.265,198.241,379.886,198.499z"/>
				<g>
					
						<polyline style="fill:none;stroke:#1A2328;stroke-width:0.7072;stroke-linecap:round;stroke-linejoin:round;stroke-miterlimit:10;" points="
						384.391,186.992 384.796,189.562 383.227,189.675 					"/>
					<path style="fill:#1A2328;" d="M386.502,184.618c0.002,0.621,0.507,1.123,1.128,1.121c0.621-0.002,1.123-0.507,1.121-1.128
						s-0.507-1.123-1.128-1.121S386.5,183.997,386.502,184.618z"/>
					<path style="fill:#1A2328;" d="M376.796,184.633c0.002,0.621,0.507,1.123,1.128,1.121c0.621-0.002,1.123-0.507,1.121-1.127
						c-0.002-0.621-0.507-1.123-1.128-1.121C377.296,183.508,376.794,184.013,376.796,184.633z"/>
					<path style="fill:#332C30;" d="M374.11,181.099c0,0,0.039,0.957,1.866,0.471c1.387-0.369,2.261-0.615,3.108-0.71
						c0.481-0.054,0.913-0.319,1.025-0.626l0,0c0.09-0.248-0.102-0.565-0.412-0.663c-0.629-0.199-1.786-0.326-3.478,0.11
						C374.044,180.239,374.11,181.099,374.11,181.099z"/>
					<path style="fill:#332C30;" d="M389.862,180.446c0,0-0.126,0.891-1.453,0.58c-1.007-0.237-1.64-0.398-2.269-0.422
						c-0.357-0.013-0.656-0.226-0.709-0.503l0,0c-0.043-0.223,0.082-0.444,0.326-0.558c0.493-0.232,1.43-0.528,2.66-0.253
						C389.998,179.643,389.862,180.446,389.862,180.446z"/>
					<path style="fill:#FDFCFF;" d="M385.235,191.497h-6.5c0,0,0.659,1.922,3.693,1.785
						C385.462,193.145,385.235,191.497,385.235,191.497z"/>
				</g>
				<path style="fill:#332C30;" d="M374.651,170.726c0,0-2.367,5.285-5.629,7.941l-0.446,5.317l-7.15-5.646l1.342-6.76
					L374.651,170.726z"/>
				<g>
					<g>
						<path style="fill:#C88D6D;" d="M360.216,185.183c-0.084,2.479,1.857,4.556,4.336,4.64c2.479,0.084,4.556-1.857,4.64-4.336
							c0.084-2.479-1.857-4.556-4.336-4.64C362.377,180.763,360.3,182.704,360.216,185.183z"/>
					</g>
					<g>
						
							<path style="fill:none;stroke:#1A2328;stroke-width:0.6419;stroke-linecap:round;stroke-linejoin:round;stroke-miterlimit:10;" d="
							M366.671,186.125c0,0-0.577-3.405-3.983-1.865"/>
					</g>
				</g>
				<polygon style="fill:#C88D6D;" points="368.576,207.342 383.227,215.776 386.529,207.242 382.45,206.284 373.441,205.941 				
					"/>
				<path style="fill:#332C30;" d="M389.942,168.821c0,0-9.051,13.09-24.403,9.174l-2.771-6.418
					C362.767,171.578,377.895,155.264,389.942,168.821z"/>
				<path style="fill:#332C30;" d="M384.011,168.85c0,0,5.487,1.635,7.25,8.505c0,0,1.709-12.815-11.81-14.29L384.011,168.85z"/>
				<path style="fill:#332C30;" d="M362.48,166.828C362.48,166.828,363.25,166.524,362.48,166.828
					c-8.301,3.283-10.95-1.391-9.387-5.585c0.226-0.608,0.549-1.23,1-1.84c0,0-5.713-1.871-4.172-6.536c0,0,1.034-3.553,6.349-1.638
					c0,0-1.05-3.044,1.177-5.129c1.278-1.196,3.2-1.519,4.827-0.873c1.117,0.444,2.441,1.319,3.616,3.027c0,0,2.76-2.55,4.941,0.235
					c1.774,2.266-0.265,5.489-0.265,5.489s3.536-1.311,4.539,0.783c1.003,2.094-0.42,4.914-5.182,7.91
					C365.16,165.667,362.48,166.828,362.48,166.828z"/>
			</g>
		</g>
		
			<line style="fill:none;stroke:#D5A992;stroke-width:1.4318;stroke-linecap:round;stroke-linejoin:round;stroke-miterlimit:10;" x1="38.957" y1="423.177" x2="462.014" y2="423.177"/>
	</g>
</g>

</svg>
